<svg width="40" height="40" viewBox="0 0 40 40" fill="none" xmlns="http://www.w3.org/2000/svg">
<rect width="40" height="40" rx="20" fill="#EAFAF9"/>
<path d="M25.9147 31.6666C24.6884 31.6666 23.3969 31.3736 22.062 30.8092C20.7597 30.2557 19.4465 29.496 18.1659 28.5736C16.8961 27.6402 15.6698 26.5984 14.5085 25.4588C13.3581 24.2976 12.3163 23.0712 11.3938 21.8123C10.4605 20.51 9.71164 19.2077 9.17986 17.9488C8.61551 16.603 8.33334 15.3007 8.33334 14.0743C8.33334 13.2278 8.48528 12.4247 8.7783 11.6759C9.08218 10.9053 9.57055 10.1891 10.2326 9.57046C11.0682 8.74566 12.0233 8.33325 13.0434 8.33325C13.4667 8.33325 13.9008 8.43093 14.2698 8.60457C14.693 8.79992 15.0512 9.09294 15.3116 9.48364L17.8295 13.0325C18.0574 13.3472 18.231 13.6511 18.3504 13.955C18.4915 14.2805 18.5675 14.6061 18.5675 14.9208C18.5675 15.3333 18.4481 15.7348 18.2202 16.1146C18.0574 16.4077 17.8078 16.7224 17.493 17.0371L16.755 17.8077C16.7659 17.8402 16.7768 17.8619 16.7876 17.8836C16.9178 18.1115 17.1783 18.5022 17.6775 19.0883C18.2093 19.696 18.7085 20.2495 19.2078 20.7596C19.8481 21.3891 20.3799 21.8883 20.8791 22.3007C21.4977 22.8216 21.8992 23.0821 22.138 23.2015L22.1163 23.2557L22.9085 22.4743C23.245 22.1379 23.5706 21.8883 23.8853 21.7255C24.4822 21.3565 25.2419 21.2914 26.0016 21.6061C26.2837 21.7255 26.5876 21.8883 26.9132 22.1162L30.5163 24.6774C30.9178 24.9488 31.2109 25.296 31.3845 25.7084C31.5473 26.1208 31.6233 26.5007 31.6233 26.8805C31.6233 27.4015 31.5039 27.9224 31.276 28.4108C31.0481 28.8991 30.7659 29.3224 30.4078 29.7131C29.7892 30.3968 29.1163 30.8852 28.3349 31.1999C27.5861 31.5038 26.7721 31.6666 25.9147 31.6666ZM13.0434 9.96116C12.4465 9.96116 11.893 10.2216 11.3613 10.7426C10.862 11.2092 10.5147 11.7193 10.2977 12.2728C10.0698 12.8371 9.96125 13.434 9.96125 14.0743C9.96125 15.0836 10.2 16.1798 10.6775 17.3084C11.1659 18.4588 11.8496 19.6526 12.7178 20.8464C13.5861 22.0402 14.5737 23.2015 15.6589 24.2976C16.7442 25.372 17.9163 26.3705 19.1209 27.2495C20.293 28.1069 21.4977 28.8015 22.6915 29.3007C24.5473 30.0929 26.2837 30.2774 27.7163 29.6805C28.2698 29.4526 28.7581 29.1053 29.2031 28.6061C29.4527 28.3348 29.6481 28.0418 29.8109 27.6945C29.9411 27.4232 30.0062 27.141 30.0062 26.8588C30.0062 26.6852 29.9737 26.5115 29.8868 26.3162C29.8543 26.2511 29.7892 26.1317 29.583 25.9906L25.9799 23.4294C25.7628 23.2774 25.5674 23.1689 25.383 23.0929C25.1442 22.9953 25.0465 22.8976 24.6775 23.1255C24.4605 23.234 24.2651 23.3968 24.0481 23.6139L23.2233 24.4278C22.8 24.8402 22.1488 24.9379 21.6496 24.7534L21.3566 24.6232C20.9116 24.3844 20.3907 24.0154 19.8155 23.527C19.2946 23.0821 18.7302 22.5612 18.0465 21.8883C17.5147 21.3457 16.983 20.7705 16.4295 20.1301C15.9194 19.5333 15.5504 19.0232 15.3225 18.5999L15.1923 18.2743C15.1271 18.0247 15.1054 17.8836 15.1054 17.7317C15.1054 17.341 15.2465 16.9937 15.5178 16.7224L16.3318 15.8759C16.5488 15.6588 16.7116 15.4526 16.8202 15.2681C16.907 15.127 16.9395 15.0077 16.9395 14.8991C16.9395 14.8123 16.907 14.6821 16.8527 14.5519C16.7768 14.3782 16.6574 14.1829 16.5054 13.9767L13.9876 10.417C13.8791 10.265 13.7488 10.1565 13.5861 10.0805C13.4124 10.0046 13.2279 9.96116 13.0434 9.96116ZM22.1163 23.2666L21.9426 24.0046L22.2357 23.2449C22.1814 23.234 22.138 23.2449 22.1163 23.2666Z" fill="#25A79C"/>
</svg>
