<svg width="16" height="18" viewBox="0 0 16 18" fill="none" xmlns="http://www.w3.org/2000/svg">
<path fill-rule="evenodd" clip-rule="evenodd" d="M2.65235 1.84067C2.1342 1.84067 1.67401 2.26334 1.67401 2.89727V4.69742C1.67401 4.82011 1.72026 5.02875 1.8281 5.26932C1.93367 5.50483 2.07297 5.71417 2.20648 5.84769L2.21699 5.85846L5.19114 8.98915C5.2026 9.00121 5.21354 9.01376 5.22393 9.02675C5.42244 9.27488 5.60607 9.6011 5.74105 9.93855C5.87476 10.2728 5.9787 10.6629 5.9787 11.0371V15.1852C5.9787 15.9419 6.85021 16.4176 7.50597 16.0185L8.59629 15.3176C8.60138 15.3143 8.60652 15.3111 8.61171 15.308C8.68295 15.2653 8.79459 15.1504 8.89187 14.9633C8.98728 14.7799 9.03112 14.5989 9.03112 14.4808V11.1153C9.03112 10.712 9.13008 10.2819 9.29298 9.89795C9.45361 9.51931 9.69514 9.1417 10.0179 8.87018L13.3626 5.91443C13.4953 5.77783 13.6489 5.55256 13.77 5.2861C13.8953 5.01043 13.962 4.74319 13.962 4.54089V2.81901C13.962 2.28226 13.5204 1.84067 12.9836 1.84067H2.65235ZM0.5 2.89727C0.5 1.65279 1.44862 0.66666 2.65235 0.66666H12.9836C14.1687 0.66666 15.136 1.63388 15.136 2.81901V4.54089C15.136 4.96472 15.007 5.40189 14.8388 5.77191C14.6699 6.14352 14.4375 6.50001 14.1814 6.7561C14.1728 6.76463 14.164 6.7729 14.155 6.78089L10.7895 9.75504C10.7853 9.7588 10.7809 9.7625 10.7766 9.76613C10.6333 9.88553 10.4859 10.0922 10.3737 10.3565C10.2627 10.6182 10.2051 10.8925 10.2051 11.1153V14.4808C10.2051 14.8324 10.0924 15.1992 9.93347 15.505C9.77783 15.8043 9.54024 16.1169 9.22452 16.3094L8.13541 17.0095L8.12563 17.0157C6.74693 17.8641 4.80469 16.9314 4.80469 15.1852V11.0371C4.80469 10.8634 4.7521 10.6273 4.65101 10.3746C4.55526 10.1352 4.43226 9.92147 4.32127 9.77805L1.37063 6.67211C1.11537 6.41502 0.904507 6.07904 0.756809 5.74956C0.610283 5.42269 0.5 5.04433 0.5 4.69742V2.89727Z" fill="#6C757D"/>
</svg>
