<svg width="41" height="40" viewBox="0 0 41 40" fill="none" xmlns="http://www.w3.org/2000/svg">
<rect x="0.5" width="40" height="40" rx="20" fill="#EAFAF9"/>
<path d="M23.7558 31.6666H17.2442C11.3512 31.6666 8.83334 29.1488 8.83334 23.2557V16.7441C8.83334 10.8511 11.3512 8.33325 17.2442 8.33325H22.6705C23.1155 8.33325 23.4845 8.70224 23.4845 9.14721C23.4845 9.59217 23.1155 9.96116 22.6705 9.96116H17.2442C12.2411 9.96116 10.4612 11.741 10.4612 16.7441V23.2557C10.4612 28.2588 12.2411 30.0387 17.2442 30.0387H23.7558C28.7589 30.0387 30.5388 28.2588 30.5388 23.2557V17.8294C30.5388 17.3844 30.9078 17.0154 31.3527 17.0154C31.7977 17.0154 32.1667 17.3844 32.1667 17.8294V23.2557C32.1667 29.1488 29.6488 31.6666 23.7558 31.6666Z" fill="#25A79C"/>
<path d="M31.3527 18.6433H27.0116C23.3 18.6433 21.8566 17.1999 21.8566 13.4883V9.14721C21.8566 8.82162 22.0519 8.51775 22.3558 8.39837C22.6597 8.26814 23.007 8.3441 23.2457 8.57201L31.9279 17.2542C32.1558 17.4821 32.2318 17.8402 32.1016 18.1441C31.9713 18.448 31.6783 18.6433 31.3527 18.6433ZM23.4845 11.1115V13.4883C23.4845 16.2883 24.2116 17.0154 27.0116 17.0154H29.3884L23.4845 11.1115Z" fill="#25A79C"/>
<path d="M21.5853 21.8991H15.0736C14.6287 21.8991 14.2597 21.5302 14.2597 21.0852C14.2597 20.6402 14.6287 20.2712 15.0736 20.2712H21.5853C22.0302 20.2712 22.3992 20.6402 22.3992 21.0852C22.3992 21.5302 22.0302 21.8991 21.5853 21.8991Z" fill="#25A79C"/>
<path d="M19.4147 26.2402H15.0736C14.6287 26.2402 14.2597 25.8712 14.2597 25.4263C14.2597 24.9813 14.6287 24.6123 15.0736 24.6123H19.4147C19.8597 24.6123 20.2287 24.9813 20.2287 25.4263C20.2287 25.8712 19.8597 26.2402 19.4147 26.2402Z" fill="#25A79C"/>
</svg>
