<svg width="41" height="40" viewBox="0 0 41 40" fill="none" xmlns="http://www.w3.org/2000/svg">
<rect x="0.5" width="40" height="40" rx="20" fill="#EAFAF9"/>
<path d="M16.1589 30.7223C15.855 30.7223 15.5403 30.6464 15.2581 30.4945C14.6395 30.1689 14.2597 29.5177 14.2597 28.8231V27.2821C10.9822 26.9457 8.83334 24.5363 8.83334 21.0851V14.5736C8.83334 10.8402 11.3403 8.33325 15.0736 8.33325H25.9264C29.6597 8.33325 32.1667 10.8402 32.1667 14.5736V21.0851C32.1667 24.8185 29.6597 27.3254 25.9264 27.3254H21.8349L17.2116 30.4077C16.8969 30.6139 16.5279 30.7223 16.1589 30.7223ZM15.0736 9.9503C12.2736 9.9503 10.4612 11.7627 10.4612 14.5627V21.0744C10.4612 23.8744 12.2736 25.6868 15.0736 25.6868C15.5186 25.6868 15.8876 26.0558 15.8876 26.5007V28.8124C15.8876 28.9535 15.9744 29.0186 16.0287 29.0511C16.083 29.0837 16.1915 29.1162 16.3109 29.0402L21.1403 25.8279C21.2706 25.7411 21.4333 25.6868 21.5961 25.6868H25.9372C28.7372 25.6868 30.5496 23.8744 30.5496 21.0744V14.5627C30.5496 11.7627 28.7372 9.9503 25.9372 9.9503H15.0736Z" fill="#25A79C"/>
<path d="M20.4998 19.6418C20.0548 19.6418 19.6858 19.2728 19.6858 18.8279V18.6C19.6858 17.3411 20.6083 16.7225 20.9556 16.4837C21.3571 16.2124 21.4874 16.0279 21.4874 15.7457C21.4874 15.2031 21.0424 14.7581 20.4998 14.7581C19.9572 14.7581 19.5122 15.2031 19.5122 15.7457C19.5122 16.1907 19.1432 16.5597 18.6983 16.5597C18.2533 16.5597 17.8843 16.1907 17.8843 15.7457C17.8843 14.3023 19.0564 13.1302 20.4998 13.1302C21.9432 13.1302 23.1153 14.3023 23.1153 15.7457C23.1153 16.9829 22.2037 17.6015 21.8673 17.8294C21.444 18.1116 21.3138 18.2961 21.3138 18.6V18.8279C21.3138 19.2837 20.9448 19.6418 20.4998 19.6418Z" fill="#25A79C"/>
<path d="M20.5 22.3441C20.0442 22.3441 19.686 21.9751 19.686 21.5302C19.686 21.0852 20.055 20.7162 20.5 20.7162C20.945 20.7162 21.314 21.0852 21.314 21.5302C21.314 21.9751 20.9558 22.3441 20.5 22.3441Z" fill="#25A79C"/>
</svg>
