<svg width="18" height="18" viewBox="0 0 18 18" fill="none" xmlns="http://www.w3.org/2000/svg">
<path d="M6.67426 13.4574C6.59674 13.4574 6.52697 13.4419 6.44945 13.4109C6.2324 13.3256 6.09286 13.1085 6.09286 12.876V8.22481C6.09286 7.90698 6.35643 7.64341 6.67426 7.64341C6.99209 7.64341 7.25565 7.90698 7.25565 8.22481V11.4729L7.81379 10.9147C8.0386 10.6899 8.41069 10.6899 8.6355 10.9147C8.8603 11.1395 8.8603 11.5116 8.6355 11.7364L7.08511 13.2868C6.97658 13.3954 6.82154 13.4574 6.67426 13.4574Z" fill="#6C757D"/>
<path d="M6.67426 13.4574C6.52697 13.4574 6.37968 13.4031 6.2634 13.2868L4.71302 11.7364C4.48821 11.5116 4.48821 11.1395 4.71302 10.9147C4.93782 10.6899 5.30992 10.6899 5.53472 10.9147L7.08511 12.4651C7.30992 12.6899 7.30992 13.062 7.08511 13.2868C6.96883 13.4031 6.82154 13.4574 6.67426 13.4574Z" fill="#6C757D"/>
<path d="M11.3254 17.3333H6.67426C2.46495 17.3333 0.666504 15.5349 0.666504 11.3256V6.67442C0.666504 2.46512 2.46495 0.666668 6.67426 0.666668H10.5502C10.8681 0.666668 11.1316 0.930234 11.1316 1.24806C11.1316 1.56589 10.8681 1.82946 10.5502 1.82946H6.67426C3.10061 1.82946 1.82929 3.10078 1.82929 6.67442V11.3256C1.82929 14.8992 3.10061 16.1705 6.67426 16.1705H11.3254C14.8991 16.1705 16.1704 14.8992 16.1704 11.3256V7.44961C16.1704 7.13178 16.4339 6.86822 16.7518 6.86822C17.0696 6.86822 17.3332 7.13178 17.3332 7.44961V11.3256C17.3332 15.5349 15.5347 17.3333 11.3254 17.3333Z" fill="#6C757D"/>
<path d="M16.7518 8.03101H13.651C10.9998 8.03101 9.96883 7 9.96883 4.34884V1.24806C9.96883 1.01551 10.1084 0.798451 10.3254 0.713179C10.5425 0.620156 10.7905 0.67442 10.9611 0.837211L17.1626 7.03876C17.3254 7.20155 17.3797 7.45737 17.2867 7.67442C17.1936 7.89147 16.9843 8.03101 16.7518 8.03101ZM11.1316 2.65116V4.34884C11.1316 6.34884 11.651 6.86822 13.651 6.86822H15.3487L11.1316 2.65116Z" fill="#6C757D"/>
</svg>
