<svg width="41" height="40" viewBox="0 0 41 40" fill="none" xmlns="http://www.w3.org/2000/svg">
<rect x="0.5" width="40" height="40" rx="20" fill="#EAFAF9"/>
<path fill-rule="evenodd" clip-rule="evenodd" d="M8.83334 12.4819C8.83334 10.7178 10.2894 9.3631 12.0584 9.51106C14.4662 9.70629 18.0367 10.8964 20.0781 12.1674L20.3535 12.3326C20.3563 12.3339 20.3678 12.3392 20.3898 12.3447C20.4194 12.352 20.4575 12.3571 20.5 12.3571C20.5425 12.3571 20.5806 12.352 20.6102 12.3447C20.6311 12.3394 20.6425 12.3344 20.646 12.3328L20.8262 12.2162C22.8679 10.9316 26.4547 9.72856 28.863 9.52213C28.8862 9.52015 28.9094 9.51916 28.9326 9.51916H28.966C30.7115 9.39247 32.1667 10.7219 32.1667 12.4928V25.592C32.1667 27.038 31.0208 28.3666 29.5653 28.5485L29.5623 28.5489L29.2088 28.5917C26.9455 28.8938 23.4038 30.0637 21.4088 31.1637C21.1146 31.331 20.7808 31.3901 20.4932 31.3901C20.2075 31.3901 19.8815 31.3318 19.5912 31.1756L19.5608 31.1604C19.5519 31.1559 19.543 31.1513 19.5343 31.1465C17.5379 30.0547 13.9981 28.8925 11.7426 28.5911L11.7392 28.5906L11.4292 28.5478C9.97633 28.3632 8.83334 27.0362 8.83334 25.592V12.4819ZM11.9233 11.1334C11.1099 11.065 10.4612 11.6636 10.4612 12.4819V25.592C10.4612 26.2298 11.0084 26.8547 11.6366 26.9332L11.6469 26.9345L11.9582 26.9775L11.96 26.9777C14.4095 27.3054 18.1295 28.5261 20.302 29.7109L20.3322 29.726C20.3423 29.7311 20.3523 29.7363 20.3622 29.7418C20.3622 29.7418 20.3727 29.7467 20.3957 29.752C20.4223 29.758 20.4562 29.7622 20.4932 29.7622C20.5304 29.7622 20.5625 29.758 20.5861 29.7526C20.5983 29.7498 20.6054 29.7472 20.6082 29.7462L20.6166 29.7413C22.7887 28.5422 26.5322 27.3056 28.9989 26.9774L29.0083 26.9762L29.3634 26.9332L29.3646 26.933C29.9923 26.8538 30.5388 26.2293 30.5388 25.592V12.4928C30.5388 11.6714 29.8871 11.0752 29.0658 11.1442C29.0432 11.1461 29.0204 11.1471 28.9977 11.1471H28.9682C26.819 11.3399 23.5107 12.452 21.6974 13.5915L21.5045 13.7163C21.188 13.9128 20.8205 13.9851 20.5 13.9851C20.1816 13.9851 19.8169 13.9136 19.5017 13.7199L19.2227 13.5526C17.3999 12.4159 14.0738 11.3074 11.9258 11.1336L11.9233 11.1334Z" fill="#25A79C"/>
<path fill-rule="evenodd" clip-rule="evenodd" d="M20.5 12.5688C20.9495 12.5688 21.314 12.9332 21.314 13.3827V29.6618C21.314 30.1113 20.9495 30.4757 20.5 30.4757C20.0505 30.4757 19.686 30.1113 19.686 29.6618V13.3827C19.686 12.9332 20.0505 12.5688 20.5 12.5688Z" fill="#25A79C"/>
<path fill-rule="evenodd" clip-rule="evenodd" d="M12.6318 16.6385C12.6318 16.189 12.9962 15.8246 13.4457 15.8246H15.8876C16.3371 15.8246 16.7016 16.189 16.7016 16.6385C16.7016 17.0881 16.3371 17.4525 15.8876 17.4525H13.4457C12.9962 17.4525 12.6318 17.0881 12.6318 16.6385Z" fill="#25A79C"/>
<path fill-rule="evenodd" clip-rule="evenodd" d="M12.6318 19.8944C12.6318 19.4448 12.9962 19.0804 13.4457 19.0804H16.7016C17.1511 19.0804 17.5155 19.4448 17.5155 19.8944C17.5155 20.3439 17.1511 20.7083 16.7016 20.7083H13.4457C12.9962 20.7083 12.6318 20.3439 12.6318 19.8944Z" fill="#25A79C"/>
</svg>
