<svg width="24" height="28" viewBox="0 0 24 28" fill="none" xmlns="http://www.w3.org/2000/svg">
<path d="M11.6847 27.3333C5.23452 27.3333 -3.05176e-05 22.0864 -3.05176e-05 15.6486C-3.05176e-05 13.329 0.682198 11.0839 1.97223 9.14884C2.25753 8.7271 2.84052 8.60306 3.26226 8.88836C3.684 9.17365 3.80805 9.75665 3.52275 10.1784C2.44359 11.7909 1.873 13.6888 1.873 15.6362C1.873 21.0568 6.27647 25.4603 11.6971 25.4603C17.1177 25.4603 21.5212 21.0568 21.5212 15.6362C21.5212 10.2156 17.1053 5.81212 11.6847 5.81212C10.5435 5.81212 9.42713 5.97338 8.37278 6.29589C7.87661 6.44474 7.35563 6.17185 7.20678 5.67568C7.05793 5.17951 7.33083 4.65854 7.82699 4.50969C9.06741 4.13756 10.3574 3.9391 11.6847 3.9391C18.1348 3.9391 23.3694 9.18606 23.3694 15.6238C23.3694 22.0616 18.1348 27.3333 11.6847 27.3333Z" fill="#25A79C"/>
<path d="M6.56177 6.6432C6.3509 6.6432 6.12762 6.56878 5.95397 6.41993C5.55703 6.07261 5.51982 5.48962 5.85473 5.10509L9.43953 0.986907C9.77444 0.602378 10.3698 0.552761 10.7544 0.900078C11.1389 1.23499 11.1761 1.83039 10.8412 2.21492L7.2564 6.32069C7.07034 6.53157 6.80985 6.6432 6.56177 6.6432Z" fill="#25A79C"/>
<path d="M10.742 9.69463C10.5559 9.69463 10.3574 9.6326 10.1962 9.52097L6.00358 6.45714C5.59424 6.15944 5.50742 5.57645 5.80512 5.16711C6.10281 4.74537 6.68581 4.65854 7.10755 4.95624L11.2878 8.00766C11.6971 8.30536 11.7963 8.88836 11.4862 9.3101C11.3126 9.57058 11.0273 9.69463 10.742 9.69463Z" fill="#25A79C"/>
<path d="M7.99999 12.7441H12.7206V14.0189C12.7206 14.1039 12.7206 14.1889 12.7206 14.2568H7.99999V15.6506H12.6471C12.4118 17.2484 11.5735 17.3843 8.61764 17.3843V19.7129C8.61764 21.9906 9.67646 23.3333 11.6765 23.3333C13.6323 23.3333 14.7206 22.1775 14.75 19.8659H13.2059C13.2059 21.0387 12.8088 21.8206 11.7059 21.8206C10.5294 21.8206 10.1912 20.9367 10.1912 19.7979V18.7271C12.7794 18.7271 13.8823 17.9112 14.2059 15.6506H16V14.2568H14.2941C14.2941 14.1889 14.2941 14.1039 14.2941 14.0189V12.7441H16V11.3333H7.99999V12.7441Z" fill="#25A79C"/>
</svg>
