<svg width="17" height="18" viewBox="0 0 17 18" fill="none" xmlns="http://www.w3.org/2000/svg">
<path d="M8.52091 16.3755C4.19141 16.3755 0.666504 12.8506 0.666504 8.52108C0.666504 4.19158 4.19141 0.666672 8.52091 0.666672C12.8504 0.666672 16.3753 4.19158 16.3753 8.52108C16.3753 12.8506 12.8504 16.3755 8.52091 16.3755ZM8.52091 1.8161C4.81976 1.8161 1.81593 4.82759 1.81593 8.52108C1.81593 12.2146 4.81976 15.2261 8.52091 15.2261C12.2221 15.2261 15.2259 12.2146 15.2259 8.52108C15.2259 4.82759 12.2221 1.8161 8.52091 1.8161Z" fill="#8A959E"/>
<path d="M15.7474 17.3333C15.5391 17.3333 15.3309 17.2567 15.1664 17.0923L12.9739 14.9014C12.656 14.5837 12.656 14.0579 12.9739 13.7402C13.2918 13.4225 13.818 13.4225 14.1359 13.7402L16.3284 15.9311C16.6464 16.2488 16.6464 16.7746 16.3284 17.0923C16.164 17.2567 15.9557 17.3333 15.7474 17.3333Z" fill="#8A959E"/>
</svg>
