<svg width="16" height="22" viewBox="0 0 16 22" fill="none" xmlns="http://www.w3.org/2000/svg">
<path fill-rule="evenodd" clip-rule="evenodd" d="M2.15982 0.930721C2.83407 0.486181 3.71006 0.25 4.76 0.25H11.24C12.2899 0.25 13.1659 0.486181 13.8402 0.930721C14.521 1.3796 14.9547 2.01492 15.1456 2.72544C15.5212 4.12387 14.9442 5.70561 13.7638 6.77557L9.11519 11L13.7637 15.2243C14.9439 16.2943 15.5212 17.8762 15.1456 19.2746C14.9547 19.9851 14.521 20.6204 13.8402 21.0693C13.1659 21.5138 12.2899 21.75 11.24 21.75H4.76C3.71006 21.75 2.83407 21.5138 2.15982 21.0693C1.479 20.6204 1.04527 19.9851 0.854423 19.2746C0.478861 17.8764 1.05563 16.2949 2.2356 15.2249L6.88481 11L2.23631 6.7757C1.05612 5.70573 0.478826 4.12377 0.854423 2.72544C1.04527 2.01492 1.479 1.3796 2.15982 0.930721ZM8 9.98658L12.7556 5.66495C13.6051 4.89492 13.8988 3.86608 13.6969 3.11456C13.599 2.75008 13.3821 2.4254 13.0145 2.18303C12.6403 1.93632 12.0701 1.75 11.24 1.75H4.76C3.92994 1.75 3.35968 1.93632 2.98549 2.18303C2.61787 2.4254 2.40097 2.75008 2.30307 3.11456C2.10121 3.86608 2.39414 4.89427 3.24368 5.6643L8 9.98658ZM8 12.0134L3.2444 16.3351C2.39485 17.1051 2.10121 18.1339 2.30307 18.8854C2.40097 19.2499 2.61787 19.5746 2.98549 19.817C3.35968 20.0637 3.92994 20.25 4.76 20.25H11.24C12.0701 20.25 12.6403 20.0637 13.0145 19.817C13.3821 19.5746 13.599 19.2499 13.6969 18.8854C13.8988 18.1339 13.6059 17.1057 12.7563 16.3357L8 12.0134Z" fill="#FFB319"/>
</svg>
