<svg width="48" height="48" viewBox="0 0 48 48" fill="none" xmlns="http://www.w3.org/2000/svg">
<rect width="48" height="48" rx="24" fill="#E9F0FB"/>
<path d="M23.6847 37.3334C17.2345 37.3334 12 32.0865 12 25.6487C12 23.3291 12.6822 21.084 13.9722 19.1489C14.2575 18.7272 14.8405 18.6031 15.2623 18.8884C15.684 19.1737 15.808 19.7567 15.5227 20.1785C14.4436 21.791 13.873 23.6888 13.873 25.6363C13.873 31.0569 18.2765 35.4604 23.6971 35.4604C29.1177 35.4604 33.5212 31.0569 33.5212 25.6363C33.5212 20.2157 29.1053 15.8122 23.6847 15.8122C22.5435 15.8122 21.4271 15.9735 20.3728 16.296C19.8766 16.4448 19.3556 16.1719 19.2068 15.6758C19.0579 15.1796 19.3308 14.6586 19.827 14.5098C21.0674 14.1376 22.3574 13.9392 23.6847 13.9392C30.1348 13.9392 35.3694 19.1861 35.3694 25.6239C35.3694 32.0616 30.1348 37.3334 23.6847 37.3334Z" fill="#6897E3"/>
<path d="M18.5618 16.6433C18.3509 16.6433 18.1276 16.5689 17.954 16.42C17.557 16.0727 17.5198 15.4897 17.8547 15.1052L21.4395 10.987C21.7744 10.6025 22.3698 10.5528 22.7544 10.9002C23.1389 11.2351 23.1761 11.8305 22.8412 12.215L19.2564 16.3208C19.0703 16.5316 18.8099 16.6433 18.5618 16.6433Z" fill="#6897E3"/>
<path d="M22.742 19.6947C22.5559 19.6947 22.3574 19.6327 22.1962 19.521L18.0036 16.4572C17.5942 16.1595 17.5074 15.5765 17.8051 15.1672C18.1028 14.7454 18.6858 14.6586 19.1076 14.9563L23.2878 18.0077C23.6971 18.3054 23.7963 18.8884 23.4862 19.3102C23.3126 19.5707 23.0273 19.6947 22.742 19.6947Z" fill="#6897E3"/>
<path d="M20 22.7442H24.7206V24.019C24.7206 24.104 24.7206 24.1889 24.7206 24.2569H20V25.6507H24.6471C24.4118 27.2484 23.5735 27.3844 20.6176 27.3844V29.713C20.6176 31.9906 21.6765 33.3334 23.6765 33.3334C25.6323 33.3334 26.7206 32.1776 26.75 29.866H25.2059C25.2059 31.0388 24.8088 31.8207 23.7059 31.8207C22.5294 31.8207 22.1912 30.9368 22.1912 29.798V28.7272C24.7794 28.7272 25.8823 27.9113 26.2059 25.6507H28V24.2569H26.2941C26.2941 24.1889 26.2941 24.104 26.2941 24.019V22.7442H28V21.3334H20V22.7442Z" fill="#6897E3"/>
</svg>
