<svg width="20" height="20" viewBox="0 0 20 20" fill="none" xmlns="http://www.w3.org/2000/svg">
<path d="M14.6512 19.9977H5.34884C2.14884 19.9977 0 17.8488 0 14.6488V9.99767C0 7.13256 1.76744 5.05814 4.51163 4.71396C4.77209 4.67675 5.06047 4.64884 5.34884 4.64884H14.6512C14.8744 4.64884 15.1628 4.65813 15.4605 4.70465C18.2047 5.02093 20 7.10465 20 9.99767V14.6488C20 17.8488 17.8512 19.9977 14.6512 19.9977ZM5.34884 6.04418C5.12558 6.04418 4.91163 6.06278 4.69767 6.09068C2.65116 6.35115 1.39535 7.83953 1.39535 9.99767V14.6488C1.39535 17.0488 2.94884 18.6023 5.34884 18.6023H14.6512C17.0512 18.6023 18.6047 17.0488 18.6047 14.6488V9.99767C18.6047 7.82093 17.3302 6.32326 15.2651 6.0814C15.0419 6.04419 14.8465 6.04418 14.6512 6.04418H5.34884Z" fill="white"/>
<path d="M4.59539 6.10001C4.37214 6.10001 4.16749 5.99768 4.02795 5.81164C3.86981 5.59768 3.85121 5.31862 3.97214 5.08606C4.13028 4.76978 4.35353 4.4628 4.6419 4.18373L7.66516 1.15116C9.20935 -0.383721 11.721 -0.383721 13.2652 1.15116L14.8931 2.79769C15.5814 3.47676 16 4.38839 16.0466 5.35583C16.0559 5.56979 15.9721 5.77441 15.814 5.91395C15.6559 6.05348 15.4419 6.11862 15.2373 6.08141C15.0512 6.05351 14.8558 6.04418 14.6512 6.04418H5.34884C5.12558 6.04418 4.91163 6.06278 4.69767 6.09068C4.66977 6.09999 4.6326 6.10001 4.59539 6.10001ZM6.14888 4.64885H14.4838C14.3628 4.33257 14.1675 4.0442 13.907 3.78374L12.2698 2.12792C11.2745 1.14188 9.64655 1.14188 8.6419 2.12792L6.14888 4.64885Z" fill="white"/>
<path d="M19.3023 14.8814H16.5116C15.0977 14.8814 13.9535 13.7372 13.9535 12.3233C13.9535 10.9093 15.0977 9.76511 16.5116 9.76511H19.3023C19.6837 9.76511 20 10.0814 20 10.4628C20 10.8442 19.6837 11.1605 19.3023 11.1605H16.5116C15.8698 11.1605 15.3488 11.6814 15.3488 12.3233C15.3488 12.9651 15.8698 13.486 16.5116 13.486H19.3023C19.6837 13.486 20 13.8023 20 14.1837C20 14.5651 19.6837 14.8814 19.3023 14.8814Z" fill="white"/>
</svg>
