<svg width="48" height="48" viewBox="0 0 48 48" fill="none" xmlns="http://www.w3.org/2000/svg">
<rect width="48" height="48" rx="24" fill="#FFF3F0"/>
<path d="M30.2015 37.3303H17.7984C13.5318 37.3303 10.6667 34.4652 10.6667 30.1985V23.997C10.6667 20.1768 13.0232 17.4109 16.6822 16.952C17.0294 16.9024 17.4139 16.8652 17.7984 16.8652H30.2015C30.4992 16.8652 30.8837 16.8776 31.2806 16.9396C34.9395 17.3613 37.3333 20.1396 37.3333 23.997V30.1985C37.3333 34.4652 34.4682 37.3303 30.2015 37.3303ZM17.7984 18.7257C17.5008 18.7257 17.2155 18.7505 16.9302 18.7877C14.2015 19.1349 12.5271 21.1195 12.5271 23.997V30.1985C12.5271 33.3985 14.5984 35.4698 17.7984 35.4698H30.2015C33.4015 35.4698 35.4729 33.3985 35.4729 30.1985V23.997C35.4729 21.0947 33.7736 19.0978 31.0201 18.7753C30.7225 18.7257 30.462 18.7257 30.2015 18.7257H17.7984Z" fill="#FF704D"/>
<path d="M16.7938 18.8001C16.4962 18.8001 16.2233 18.6637 16.0373 18.4156C15.8264 18.1303 15.8016 17.7582 15.9628 17.4482C16.1737 17.0265 16.4714 16.6171 16.8559 16.2451L20.8869 12.2016C22.9458 10.1551 26.2946 10.1551 28.3535 12.2016L30.5241 14.397C31.4419 15.3024 32 16.5179 32.0621 17.8079C32.0745 18.0931 31.9628 18.366 31.752 18.552C31.5411 18.7381 31.2559 18.8249 30.983 18.7753C30.7349 18.7381 30.4744 18.7257 30.2015 18.7257H17.7984C17.5008 18.7257 17.2155 18.7505 16.9302 18.7877C16.893 18.8001 16.8435 18.8001 16.7938 18.8001ZM18.8652 16.8652H29.9783C29.8171 16.4435 29.5566 16.059 29.2094 15.7117L27.0264 13.504C25.6993 12.1893 23.5287 12.1893 22.1892 13.504L18.8652 16.8652Z" fill="#FF704D"/>
<path d="M36.4031 30.5086H32.6822C30.7969 30.5086 29.2713 28.983 29.2713 27.0978C29.2713 25.2125 30.7969 23.6869 32.6822 23.6869H36.4031C36.9116 23.6869 37.3333 24.1086 37.3333 24.6171C37.3333 25.1257 36.9116 25.5474 36.4031 25.5474H32.6822C31.8263 25.5474 31.1318 26.2419 31.1318 27.0978C31.1318 27.9536 31.8263 28.6481 32.6822 28.6481H36.4031C36.9116 28.6481 37.3333 29.0698 37.3333 29.5784C37.3333 30.0869 36.9116 30.5086 36.4031 30.5086Z" fill="#FF704D"/>
</svg>
